<svg width="63" height="66" viewBox="0 0 63 66" fill="none" xmlns="http://www.w3.org/2000/svg">
<path d="M6.34997 6.16994C4.97997 7.41994 2.85999 7.34 1.61999 5.98C0.379987 4.62 0.489977 2.51003 1.85998 1.26003C3.22998 0.0100268 5.34995 0.0899584 6.57995 1.43996C7.82995 2.79996 7.70997 4.91994 6.34997 6.16994Z" fill="#009CE0"/>
<path d="M13.0801 13.5397C11.7101 14.7897 9.59009 14.6998 8.35009 13.3498C7.11009 11.9998 7.22008 9.87954 8.59008 8.62954C9.96008 7.37954 12.0801 7.45972 13.3101 8.80972C14.5601 10.1697 14.4401 12.2897 13.0801 13.5397Z" fill="#009CE0"/>
<path d="M19.81 20.9097C18.44 22.1597 16.32 22.0797 15.09 20.7197C13.85 19.3697 13.95 17.2498 15.33 15.9998C16.7 14.7498 18.81 14.8297 20.05 16.1797C21.29 17.5397 21.18 19.6597 19.81 20.9097Z" fill="#009CE0"/>
<path d="M26.54 28.2798C25.17 29.5298 23.05 29.4499 21.82 28.0899C20.58 26.7299 20.68 24.6199 22.06 23.3699C23.43 22.1199 25.54 22.1998 26.78 23.5498C28.02 24.9098 27.91 27.0298 26.54 28.2798Z" fill="#009CE0"/>
<path d="M33.6699 35.46C32.2999 36.71 30.1799 36.63 28.9499 35.27C27.7099 33.91 27.8099 31.8001 29.1899 30.5501C30.5599 29.3001 32.6699 29.38 33.9099 30.73C35.1499 32.09 35.0399 34.21 33.6699 35.46Z" fill="#009CE0"/>
<path d="M21.99 42.6497C20.63 41.3897 20.53 39.2797 21.78 37.9097C23.03 36.5597 25.16 36.4798 26.52 37.7398C27.89 38.9898 27.98 41.1098 26.74 42.4698C25.49 43.8298 23.37 43.9097 22 42.6497" fill="#009CE0"/>
<path d="M15.19 50.0198C13.83 48.7598 13.73 46.6398 14.98 45.2798C16.22 43.9298 18.35 43.8499 19.71 45.1099C21.08 46.3599 21.17 48.4899 19.93 49.8399C18.68 51.1999 16.56 51.2798 15.19 50.0198Z" fill="#009CE0"/>
<path d="M8.39992 57.3899C7.03992 56.1299 6.93996 54.0099 8.18996 52.6499C9.43996 51.2999 11.5699 51.22 12.9199 52.48C14.2899 53.74 14.3799 55.86 13.1399 57.21C11.8899 58.57 9.76992 58.6499 8.39992 57.3899Z" fill="#009CE0"/>
<path d="M1.60998 64.76C0.239985 63.5 0.150024 61.3801 1.40002 60.0201C2.65002 58.6701 4.77 58.5901 6.13 59.8501C7.5 61.1001 7.58998 63.2301 6.34998 64.5801C5.09998 65.9401 2.97998 66.02 1.60998 64.76Z" fill="#009CE0"/>
<path d="M34.4601 6.16994C33.0901 7.41994 30.9701 7.34 29.7301 5.98C28.4901 4.62 28.6001 2.51003 29.9701 1.26003C31.3401 0.0100268 33.4501 0.0899584 34.6901 1.43996C35.9301 2.79996 35.8201 4.91994 34.4501 6.16994" fill="#009CE0"/>
<path d="M41.1901 13.5397C39.8201 14.7897 37.7001 14.6998 36.4701 13.3498C35.2301 11.9998 35.3401 9.87954 36.7101 8.62954C38.0801 7.37954 40.2 7.45972 41.43 8.80972C42.67 10.1697 42.5601 12.2897 41.1901 13.5397Z" fill="#009CE0"/>
<path d="M47.9199 20.9097C46.5499 22.1597 44.4299 22.0797 43.1899 20.7197C41.9499 19.3697 42.0499 17.2498 43.4299 15.9998C44.7999 14.7498 46.9198 14.8297 48.1498 16.1797C49.3898 17.5397 49.2799 19.6597 47.9199 20.9097Z" fill="#009CE0"/>
<path d="M54.65 28.2798C53.28 29.5298 51.16 29.4499 49.92 28.0899C48.68 26.7299 48.79 24.6199 50.16 23.3699C51.53 22.1199 53.65 22.1998 54.88 23.5498C56.12 24.9098 56.01 27.0298 54.65 28.2798Z" fill="#009CE0"/>
<path d="M61.78 35.46C60.41 36.71 58.29 36.63 57.06 35.27C55.82 33.91 55.92 31.8001 57.3 30.5501C58.67 29.3001 60.78 29.38 62.02 30.73C63.26 32.09 63.15 34.21 61.78 35.46Z" fill="#009CE0"/>
<path d="M50.09 42.6497C48.73 41.3897 48.6298 39.2797 49.8798 37.9097C51.1198 36.5597 53.25 36.4798 54.61 37.7398C55.98 38.9898 56.07 41.1098 54.83 42.4698C53.58 43.8298 51.46 43.9097 50.09 42.6497Z" fill="#009CE0"/>
<path d="M43.3001 50.0198C41.9401 48.7598 41.8401 46.6398 43.0901 45.2798C44.3401 43.9298 46.4701 43.8499 47.8201 45.1099C49.1901 46.3599 49.2901 48.4899 48.0401 49.8399C46.7901 51.1999 44.6701 51.2798 43.3001 50.0198Z" fill="#009CE0"/>
<path d="M36.51 57.3899C35.15 56.1299 35.0501 54.0099 36.3001 52.6499C37.5501 51.2999 39.67 51.22 41.03 52.48C42.4 53.74 42.5 55.86 41.25 57.21C40 58.57 37.88 58.6499 36.51 57.3899Z" fill="#009CE0"/>
<path d="M29.7201 64.76C28.3501 63.5 28.2601 61.3801 29.5101 60.0201C30.7601 58.6701 32.8801 58.5901 34.2401 59.8501C35.6101 61.1001 35.7101 63.2301 34.4601 64.5801C33.2101 65.9401 31.0901 66.02 29.7201 64.76Z" fill="#009CE0"/>
</svg>
