<svg width="142" height="149" viewBox="0 0 142 149" fill="none" xmlns="http://www.w3.org/2000/svg">
<path d="M13.54 13.35C10.44 16.18 5.6299 16.0001 2.8299 12.9201C0.019904 9.85008 0.269943 5.05001 3.36994 2.22001C6.47994 -0.61999 11.2699 -0.419946 14.0699 2.64005C16.8999 5.73005 16.64 10.52 13.54 13.35Z" fill="white"/>
<path d="M28.79 30.05C25.69 32.88 20.8899 32.6899 18.0799 29.6099C15.2699 26.5399 15.5199 21.74 18.6199 18.91C21.7299 16.08 26.5299 16.2699 29.3199 19.3299C32.1499 22.4199 31.89 27.22 28.79 30.05Z" fill="white"/>
<path d="M44.04 46.7499C40.94 49.5799 36.1299 49.39 33.3299 46.31C30.5199 43.25 30.76 38.4499 33.88 35.6199C36.98 32.7799 41.7699 32.98 44.5699 36.04C47.3899 39.13 47.14 43.9199 44.03 46.7499" fill="white"/>
<path d="M59.2901 63.4498C56.1901 66.2798 51.38 66.0899 48.58 63.0099C45.77 59.9399 46.01 55.1398 49.12 52.3198C52.22 49.4798 57.01 49.6699 59.82 52.7299C62.64 55.8199 62.39 60.6198 59.28 63.4498" fill="white"/>
<path d="M75.4399 79.73C72.3399 82.56 67.5299 82.3701 64.7299 79.3001C61.9099 76.2301 62.16 71.43 65.27 68.6C68.37 65.76 73.1599 65.9501 75.9699 69.0201C78.7899 72.1101 78.54 76.9 75.43 79.73" fill="white"/>
<path d="M48.9699 96.0103C45.8799 93.1603 45.66 88.3603 48.49 85.2803C51.32 82.2103 56.1399 82.0403 59.2199 84.8903C62.3199 87.7303 62.5299 92.5403 59.7099 95.6003C56.8699 98.6903 52.0599 98.8603 48.9699 96.0103Z" fill="white"/>
<path d="M33.5799 112.71C30.4899 109.86 30.2699 105.06 33.1099 101.98C35.9299 98.91 40.7499 98.73 43.8299 101.58C46.9299 104.42 47.1399 109.23 44.3199 112.29C41.4799 115.38 36.6699 115.55 33.5799 112.71Z" fill="white"/>
<path d="M18.19 129.41C15.1 126.56 14.89 121.76 17.72 118.68C20.55 115.61 25.37 115.43 28.45 118.28C31.56 121.13 31.76 125.93 28.94 129C26.11 132.08 21.29 132.26 18.2 129.41" fill="white"/>
<path d="M2.81007 146.11C-0.289926 143.26 -0.500028 138.46 2.32997 135.38C5.15997 132.31 9.98007 132.13 13.0601 134.98C16.1701 137.82 16.3701 142.63 13.5501 145.7C10.7201 148.79 5.89996 148.96 2.81996 146.11" fill="white"/>
<path d="M77.2299 13.35C74.1299 16.18 69.32 16.0001 66.52 12.9201C63.71 9.85008 63.9599 5.05001 67.0699 2.22001C70.1699 -0.61999 74.96 -0.419946 77.77 2.64005C80.59 5.73005 80.3299 10.52 77.2299 13.35Z" fill="white"/>
<path d="M92.4799 30.05C89.3799 32.88 84.57 32.6899 81.77 29.6099C78.95 26.5399 79.2 21.74 82.31 18.91C85.41 16.08 90.21 16.2699 93.01 19.3299C95.82 22.4199 95.5799 27.22 92.4699 30.05" fill="white"/>
<path d="M107.74 46.7499C104.64 49.5799 99.83 49.39 97.03 46.31C94.22 43.25 94.4599 38.4499 97.5699 35.6199C100.67 32.7799 105.47 32.98 108.27 36.04C111.08 39.13 110.84 43.9199 107.74 46.7499Z" fill="white"/>
<path d="M122.99 63.4498C119.89 66.2798 115.08 66.0899 112.28 63.0099C109.47 59.9399 109.72 55.1398 112.82 52.3198C115.92 49.4798 120.72 49.6699 123.52 52.7299C126.34 55.8199 126.09 60.6198 122.99 63.4498Z" fill="white"/>
<path d="M139.14 79.73C136.04 82.56 131.23 82.3701 128.43 79.3001C125.62 76.2301 125.86 71.43 128.97 68.6C132.07 65.76 136.86 65.9501 139.67 69.0201C142.49 72.1101 142.24 76.9 139.13 79.73" fill="white"/>
<path d="M112.66 96.0103C109.57 93.1603 109.35 88.3603 112.19 85.2803C115.01 82.2103 119.83 82.0403 122.91 84.8903C126.01 87.7303 126.22 92.5403 123.4 95.6003C120.56 98.6903 115.75 98.8603 112.66 96.0103Z" fill="white"/>
<path d="M97.27 112.71C94.18 109.86 93.9701 105.06 96.8001 101.98C99.6301 98.91 104.45 98.73 107.53 101.58C110.64 104.42 110.85 109.23 108.02 112.29C105.18 115.38 100.37 115.55 97.2801 112.71" fill="white"/>
<path d="M81.88 129.41C78.79 126.56 78.5801 121.76 81.4101 118.68C84.2401 115.61 89.06 115.43 92.14 118.28C95.24 121.13 95.46 125.93 92.63 129C89.8 132.08 84.98 132.26 81.89 129.41" fill="white"/>
<path d="M66.5001 146.11C63.4001 143.26 63.1901 138.46 66.0301 135.38C68.8601 132.31 73.6801 132.13 76.7501 134.98C79.8601 137.82 80.07 142.63 77.24 145.7C74.41 148.79 69.5901 148.96 66.5101 146.11" fill="white"/>
</svg>
