<svg width="197" height="197" viewBox="0 0 197 197" fill="none" xmlns="http://www.w3.org/2000/svg">
<mask id="mask0_121_718" style="mask-type:luminance" maskUnits="userSpaceOnUse" x="2" y="2" width="193" height="193">
<path d="M98.57 194.56C151.744 194.56 194.85 151.454 194.85 98.28C194.85 45.1061 151.744 2 98.57 2C45.396 2 2.29004 45.1061 2.29004 98.28C2.29004 151.454 45.396 194.56 98.57 194.56Z" fill="white"/>
</mask>
<g mask="url(#mask0_121_718)">
<path d="M212.86 152.62L218.75 147.34L217.45 138.62L208.92 136.39L207.63 127.68L199.1 125.45L197.81 116.73L189.28 114.5L187.99 105.79L179.46 103.56L178.17 94.8401L169.64 92.6101L168.35 83.9001L159.82 81.6702L158.53 72.9501L150 70.7201L148.71 62.0101L140.18 59.7802L138.89 51.0602L130.36 48.8301L124.47 54.1101L120.08 66.5101L30.94 146.49L18.14 149.52L12.26 154.8L13.55 163.52L22.08 165.75L23.37 174.46L31.9 176.69L33.19 185.41L41.72 187.64L43.01 196.35L51.54 198.58L52.83 207.3L61.36 209.53L62.65 218.25L71.1801 220.47L72.47 229.19L81 231.42L82.29 240.14L90.8199 242.36L92.11 251.08L100.64 253.31L106.53 248.03L110.92 235.63L200.06 155.65L212.86 152.62Z" stroke="#1D3E8E" stroke-width="3.59" stroke-miterlimit="10"/>
<path d="M124.47 54.1104L212.86 152.62" stroke="#1D3E8E" stroke-width="3.59" stroke-miterlimit="10"/>
<path d="M120.08 66.5103L200.06 155.65" stroke="#1D3E8E" stroke-width="3.59" stroke-miterlimit="10"/>
<path d="M30.9399 146.49L110.92 235.63" stroke="#1D3E8E" stroke-width="3.59" stroke-miterlimit="10"/>
<path d="M18.1401 149.52L106.53 248.03" stroke="#1D3E8E" stroke-width="3.59" stroke-miterlimit="10"/>
</g>
<path d="M98.57 194.56C151.744 194.56 194.85 151.454 194.85 98.28C194.85 45.1061 151.744 2 98.57 2C45.396 2 2.29004 45.1061 2.29004 98.28C2.29004 151.454 45.396 194.56 98.57 194.56Z" stroke="#1D3E8E" stroke-width="3.59" stroke-miterlimit="10"/>
<path d="M68.5401 76.46C72.0001 87.1 75.46 97.74 78.91 108.38C83.39 122.18 87.88 135.98 92.36 149.77C92.67 150.72 92.2801 151.21 91.3001 151.03C90.8401 150.95 90.36 150.74 89.99 150.46C89.02 149.73 88.04 149 87.16 148.15C82.71 143.86 78.9101 139.03 75.5601 133.85C74.0901 131.57 72.63 129.23 71.63 126.73C70.15 123.03 69.09 119.16 67.85 115.36C64.07 103.78 60.28 92.2 56.51 80.62C54.48 74.4 52.38 68.2001 50.49 61.9301C48.06 53.8701 50.98 45.71 57.83 40.84C66.5 34.68 78.86 37.1401 84.65 46.1801C90.5 55.3201 87.55 67.55 78.22 72.87C75.17 74.61 71.9 75.48 68.26 75.46C68.37 75.87 68.4501 76.16 68.5401 76.45V76.46ZM76.01 63.4C79.82 59.42 79.68 53.12 75.71 49.33C71.7 45.51 65.37 45.68 61.57 49.71C57.87 53.64 58.0301 59.9601 61.9301 63.6701C65.9301 67.4801 72.22 67.36 76.01 63.4ZM67.82 84.36C66.56 83.18 64.56 83.28 63.4 84.57C62.28 85.82 62.36 87.8501 63.58 88.9301C64.9 90.1001 66.83 90.02 68 88.76C69.19 87.47 69.11 85.56 67.82 84.36Z" fill="#1D3E8E"/>
<path d="M52.9901 92.1598C52.5701 99.9498 48.9901 105.79 41.8801 109.04C34.7801 112.29 27.9301 111.28 21.8601 106.39C14.9401 100.81 13.0201 91.0598 17.0401 83.2098C21.1301 75.2098 30.0801 71.1199 38.7501 73.4299C42.7201 74.4899 46.6302 75.7598 50.5502 76.9898C50.8702 77.0898 51.2101 77.4998 51.3301 77.8398C52.8101 82.2698 54.2601 86.7198 55.7101 91.1598C55.7801 91.3698 55.8201 91.5798 55.8901 91.8698C54.9101 91.5798 54.0201 91.3198 53.0201 91.0198C53.0201 91.4898 53.0201 91.8198 53.0001 92.1598H52.9901ZM27.1201 99.0698C31.0501 102.9 37.2701 102.85 41.1201 98.9498C45.0101 95.0198 44.9401 88.6499 40.9701 84.8099C37.0301 81.0099 30.8001 81.0998 26.9701 85.0098C23.1001 88.9598 23.1701 95.2099 27.1201 99.0599V99.0698Z" fill="#1D3E8E"/>
<path d="M80.02 98.6001C80.19 99.1401 80.46 99.4201 81.02 99.5901C81.57 99.7601 82.12 99.9301 82.67 100.09L93.74 90.1602C88.02 88.4102 82.3 86.6602 76.58 84.9102C76.26 84.8102 75.94 84.7301 75.49 84.6001C75.63 85.0801 75.72 85.4201 75.84 85.7601C77.24 90.0401 78.65 94.3201 80.03 98.6001H80.02Z" fill="#1D3E8E"/>
</svg>
