<svg width="197" height="197" viewBox="0 0 197 197" fill="none" xmlns="http://www.w3.org/2000/svg">
<mask id="mask0_121_733" style="mask-type:luminance" maskUnits="userSpaceOnUse" x="2" y="2" width="193" height="193">
<path d="M98.28 194.91C151.454 194.91 194.56 151.804 194.56 98.6301C194.56 45.4562 151.454 2.3501 98.28 2.3501C45.1061 2.3501 2 45.4562 2 98.6301C2 151.804 45.1061 194.91 98.28 194.91Z" fill="white"/>
</mask>
<g mask="url(#mask0_121_733)">
<path d="M79.73 98.9502C79.9 99.4902 80.17 99.7702 80.73 99.9402C82.78 100.57 84.84 101.2 86.89 101.82C90.73 98.2102 94.98 95.0402 99.58 92.3802C91.82 89.9802 84.05 87.6303 76.29 85.2603C75.97 85.1603 75.65 85.0802 75.2 84.9502C75.34 85.4302 75.43 85.7702 75.55 86.1102C76.95 90.3902 78.36 94.6702 79.74 98.9502H79.73Z" fill="#1D3E8E"/>
<path d="M133.59 219.56C171.223 219.56 201.73 189.053 201.73 151.42C201.73 113.788 171.223 83.2803 133.59 83.2803C95.9573 83.2803 65.45 113.788 65.45 151.42C65.45 189.053 95.9573 219.56 133.59 219.56Z" stroke="#1D3E8E" stroke-width="3.59" stroke-miterlimit="10"/>
<path d="M159.45 186.74C155.51 188.94 148.79 191.14 141.38 191.14C130.03 191.14 119.6 186.51 113.11 177.93C109.98 173.99 107.66 169.01 106.62 162.87H99.0898V154.64H105.46V152.67C105.46 151.51 105.58 150.35 105.58 149.2H99.0898V140.97H106.85C108.36 134.71 111.14 129.39 114.84 125.1C121.44 117.69 130.71 113.28 141.6 113.28C148.67 113.28 154.81 114.9 158.98 116.76L155.74 129.97C152.73 128.7 147.98 127.19 142.88 127.19C137.32 127.19 132.22 129.04 128.63 133.45C127.01 135.3 125.73 137.97 124.92 140.98H153.76V149.21H123.18C123.06 150.37 123.06 151.64 123.06 152.8V154.65H153.76V162.88H124.68C125.49 166.35 126.76 169.02 128.5 170.99C132.21 175.16 137.65 176.9 143.44 176.9C148.77 176.9 154.22 175.16 156.65 173.89L159.43 186.75L159.45 186.74Z" fill="#1D3E8E"/>
</g>
<path d="M68.2498 76.8198C71.7098 87.4598 75.1698 98.0999 78.6198 108.74C83.0998 122.54 87.5898 136.34 92.0698 150.13C92.3798 151.08 91.9898 151.57 91.0098 151.39C90.5498 151.31 90.0698 151.1 89.6998 150.82C88.7298 150.09 87.7498 149.36 86.8698 148.51C82.4198 144.22 78.6198 139.39 75.2698 134.21C73.7998 131.93 72.3398 129.59 71.3398 127.09C69.8598 123.39 68.7999 119.52 67.5599 115.72C63.7799 104.14 59.9898 92.5599 56.2198 80.9799C54.1898 74.7599 52.0898 68.5599 50.1998 62.2899C47.7698 54.2299 50.6899 46.0698 57.5399 41.1998C66.2099 35.0398 78.5698 37.4999 84.3598 46.5399C90.2098 55.6799 87.2599 67.9099 77.9299 73.2299C74.8799 74.9699 71.6098 75.8398 67.9698 75.8198C68.0798 76.2298 68.1598 76.52 68.2498 76.81V76.8198ZM75.7198 63.7599C79.5298 59.7799 79.3899 53.4798 75.4199 49.6898C71.4099 45.8698 65.0799 46.0398 61.2799 50.0698C57.5799 53.9998 57.7398 60.3199 61.6398 64.0299C65.6398 67.8399 71.9298 67.7199 75.7198 63.7599ZM67.5299 84.7199C66.2699 83.5399 64.2698 83.6399 63.1098 84.93C61.9898 86.18 62.0699 88.2099 63.2899 89.2899C64.6099 90.4599 66.5398 90.3799 67.7098 89.1199C68.8998 87.8299 68.8199 85.9199 67.5299 84.7199ZM52.6998 92.5099C52.2798 100.3 48.6998 106.14 41.5898 109.39C34.4898 112.64 27.6398 111.63 21.5698 106.74C14.6498 101.16 12.7298 91.41 16.7498 83.56C20.8398 75.56 29.7898 71.4699 38.4598 73.7799C42.4298 74.8399 46.3398 76.1099 50.2598 77.3399C50.5798 77.4399 50.9199 77.8498 51.0399 78.1898C52.5199 82.6198 53.9699 87.0699 55.4199 91.5099C55.4899 91.7199 55.5298 91.9299 55.5998 92.2199C54.6198 91.9299 53.7298 91.6699 52.7298 91.3699C52.7298 91.8399 52.7298 92.1699 52.7098 92.5099H52.6998ZM26.8298 99.4199C30.7598 103.25 36.9798 103.2 40.8298 99.2999C44.7198 95.3699 44.6499 88.9999 40.6799 85.1599C36.7399 81.3599 30.5099 81.4499 26.6799 85.3599C22.8099 89.3099 22.8798 95.5599 26.8298 99.4099V99.4199Z" fill="#1D3E8E"/>
<path d="M98.28 194.91C151.454 194.91 194.56 151.804 194.56 98.6301C194.56 45.4562 151.454 2.3501 98.28 2.3501C45.1061 2.3501 2 45.4562 2 98.6301C2 151.804 45.1061 194.91 98.28 194.91Z" stroke="#1D3E8E" stroke-width="3.59" stroke-miterlimit="10"/>
</svg>
