<svg width="335" height="335" viewBox="0 0 335 335" fill="none" xmlns="http://www.w3.org/2000/svg">
<path d="M167.61 329.63C257.251 329.63 329.92 256.961 329.92 167.32C329.92 77.6784 257.251 5.00977 167.61 5.00977C77.9687 5.00977 5.30005 77.6784 5.30005 167.32C5.30005 256.961 77.9687 329.63 167.61 329.63Z" stroke="#1D3E8E" stroke-width="8.96" stroke-miterlimit="10"/>
<path d="M251.23 101.829C240.1 76.3195 214.67 58.4795 185.06 58.4795C166.6 58.4795 149.76 65.4195 137 76.8195C132.18 74.5695 126.83 73.2795 121.16 73.2795C100.43 73.2795 83.6302 90.0796 83.6302 110.81C83.6302 113.04 83.8601 115.209 84.2301 117.329C84.0301 117.329 83.8302 117.3 83.6302 117.3C59.7502 117.3 40.4302 136.88 40.8702 160.87C41.3002 184.41 61.5002 202.829 85.0502 202.829H140V245.28H126.07C121.97 245.28 119.8 250.13 122.54 253.18L164.08 299.589C165.96 301.699 169.26 301.699 171.15 299.589L212.69 253.18C215.42 250.13 213.26 245.28 209.16 245.28H195.23V202.829H214.09L248.33 202.589C274.15 200.179 294.37 178.46 294.37 152.01C294.37 125.56 275.65 105.549 251.24 101.829H251.23Z" stroke="#1D3E8E" stroke-width="3.59" stroke-miterlimit="10"/>
<path d="M131.84 170.59C127.12 170.59 122.74 169.82 118.69 168.28C114.64 166.74 111.14 164.54 108.17 161.69C105.2 158.84 102.89 155.49 101.23 151.65C99.57 147.81 98.74 143.59 98.74 138.99C98.74 134.39 99.57 130.17 101.23 126.33C102.89 122.49 105.22 119.14 108.22 116.29C111.22 113.44 114.73 111.24 118.75 109.7C122.77 108.16 127.16 107.39 131.94 107.39C137.24 107.39 142.03 108.31 146.31 110.14C150.59 111.97 154.18 114.67 157.1 118.22L148.02 126.6C145.92 124.21 143.59 122.42 141.03 121.23C138.47 120.04 135.67 119.44 132.65 119.44C129.8 119.44 127.18 119.91 124.79 120.84C122.4 121.77 120.33 123.11 118.59 124.86C116.85 126.61 115.49 128.67 114.53 131.06C113.57 133.45 113.09 136.1 113.09 139.01C113.09 141.92 113.57 144.57 114.53 146.96C115.49 149.35 116.85 151.42 118.59 153.16C120.34 154.91 122.4 156.25 124.79 157.18C127.18 158.11 129.8 158.58 132.65 158.58C135.68 158.58 138.47 157.98 141.03 156.79C143.59 155.6 145.92 153.78 148.02 151.33L157.1 159.71C154.19 163.26 150.59 165.97 146.31 167.83C142.03 169.69 137.21 170.62 131.86 170.62L131.84 170.59Z" fill="#1D3E8E"/>
<path d="M188.44 170.59C183.61 170.59 179.14 169.8 175.03 168.23C170.93 166.66 167.37 164.45 164.37 161.59C161.37 158.74 159.04 155.39 157.38 151.55C155.72 147.71 154.89 143.51 154.89 138.97C154.89 134.43 155.72 130.24 157.38 126.39C159.04 122.55 161.38 119.2 164.41 116.35C167.44 113.5 170.99 111.28 175.07 109.71C179.14 108.14 183.57 107.35 188.35 107.35C193.13 107.35 197.62 108.14 201.67 109.71C205.72 111.28 209.24 113.49 212.24 116.35C215.24 119.2 217.58 122.54 219.27 126.35C220.96 130.16 221.8 134.37 221.8 138.97C221.8 143.57 220.96 147.72 219.27 151.59C217.58 155.46 215.24 158.81 212.24 161.63C209.24 164.46 205.72 166.65 201.67 168.22C197.62 169.79 193.21 170.58 188.44 170.58V170.59ZM188.35 158.54C191.09 158.54 193.6 158.07 195.9 157.14C198.2 156.21 200.22 154.87 201.97 153.12C203.72 151.37 205.07 149.31 206.03 146.92C206.99 144.53 207.47 141.88 207.47 138.97C207.47 136.06 206.99 133.41 206.03 131.02C205.07 128.63 203.73 126.57 202.01 124.82C200.29 123.07 198.27 121.73 195.94 120.8C193.61 119.87 191.08 119.4 188.34 119.4C185.6 119.4 183.08 119.87 180.79 120.8C178.49 121.73 176.47 123.07 174.72 124.82C172.98 126.57 171.62 128.63 170.66 131.02C169.7 133.41 169.22 136.06 169.22 138.97C169.22 141.88 169.7 144.46 170.66 146.87C171.62 149.29 172.96 151.37 174.68 153.12C176.4 154.87 178.42 156.21 180.75 157.14C183.08 158.07 185.61 158.54 188.35 158.54Z" fill="#1D3E8E"/>
<path d="M221.61 176.75V171.72L232.23 161.79C232.99 161.09 233.55 160.47 233.91 159.92C234.27 159.38 234.52 158.89 234.64 158.44C234.76 157.99 234.82 157.58 234.82 157.2C234.82 156.28 234.52 155.56 233.91 155.05C233.3 154.54 232.39 154.28 231.17 154.28C230.14 154.28 229.18 154.51 228.29 154.97C227.4 155.43 226.67 156.12 226.1 157.04L220.14 153.72C221.19 151.94 222.72 150.5 224.72 149.42C226.72 148.34 229.11 147.8 231.9 147.8C234.09 147.8 236.01 148.15 237.66 148.85C239.31 149.55 240.6 150.55 241.53 151.85C242.46 153.15 242.93 154.67 242.93 156.43C242.93 157.35 242.81 158.26 242.56 159.17C242.32 160.08 241.85 161.04 241.16 162.05C240.47 163.06 239.45 164.19 238.1 165.44L229.67 173.22L228.33 170.38H243.7V176.75H221.6H221.61Z" fill="#1D3E8E"/>
</svg>
